<?xml version="1.0" standalone="no"?>
<!DOCTYPE svg PUBLIC "-//W3C//DTD SVG 20010904//EN"
 "http://www.w3.org/TR/2001/REC-SVG-20010904/DTD/svg10.dtd">
<svg version="1.0" xmlns="http://www.w3.org/2000/svg"
 width="260.000000pt" height="260.000000pt" viewBox="0 0 260.000000 260.000000"
 preserveAspectRatio="xMidYMid meet">
<metadata>
Created by potrace 1.11, written by Peter Selinger 2001-2013
</metadata>
<g transform="translate(0.000000,260.000000) scale(0.100000,-0.100000)"
fill="#000000" stroke="none">
<path d="M0 1300 l0 -1300 1300 0 1300 0 0 1300 0 1300 -1300 0 -1300 0 0
-1300z m1587 948 l71 -73 -159 -205 -159 -205 33 -3 c74 -7 276 -66 265 -78
-2 -2 -33 6 -68 18 -87 28 -266 30 -359 4 -232 -63 -408 -230 -487 -461 -24
-70 -28 -95 -28 -205 -1 -104 3 -138 22 -200 107 -343 451 -555 792 -486 95
20 206 67 283 122 l52 36 -40 -36 c-91 -82 -189 -135 -315 -171 -81 -23 -269
-27 -349 -6 -276 70 -485 279 -552 551 -28 109 -23 289 10 390 94 289 335 487
629 518 l72 7 -155 204 c-85 113 -155 207 -155 210 0 3 32 36 72 73 l73 67
190 1 191 0 71 -72z m-34 -577 c100 -26 175 -62 247 -120 378 -304 316 -885
-116 -1100 -90 -44 -176 -64 -284 -64 -171 0 -321 58 -438 170 -49 47 -55 55
-22 30 119 -92 223 -133 354 -143 275 -20 534 160 619 431 32 103 29 251 -6
360 -64 195 -228 349 -424 400 -33 9 -100 15 -158 15 -83 0 -114 -5 -182 -28
-46 -16 -83 -27 -83 -25 0 9 136 65 188 78 85 20 216 18 305 -4z"/>
</g>
</svg>
